name rise32.9588peak41.5061fall63.4684.mot
datacolumns 19
datarows 35
range 15.37327600000000 15.42994100000000
endheader
time	ground_force1_vx	ground_force1_vy	ground_force1_vz	ground_force1_px	ground_force1_py	ground_force1_pz	ground_force2_vx	ground_force2_vy	ground_force2_vz	ground_force2_px	ground_force2_py	ground_force2_pz	ground_torque1_x	ground_torque1_y	ground_torque1_z	ground_torque2_x	ground_torque2_y	ground_torque2_z	
15.37327600000000	-41.65398500000000	819.55056400000001	51.24348000000000	0.07071400000000	0.00000000000000	0.11325700000000	-1.33194200000000	3.82222200000000	1.50162300000000	0.00000000000000	0.00000000000000	0.00000000000000	0.00000000000000	15.78086200000000	0.00000000000000	0.00000000000000	0.47914600000000	0.00000000000000	
15.37494000000000	-41.95098100000000	816.84388600000000	50.99825100000000	0.07004900000000	0.00000000000000	0.11318700000000	-2.15954000000000	7.14506400000000	2.55588600000000	0.00000000000000	0.00000000000000	0.00000000000000	0.00000000000000	15.72318800000000	0.00000000000000	0.00000000000000	0.82033000000000	0.00000000000000	
15.37660500000000	-42.26513300000000	814.04226700000004	50.73804200000000	0.06938200000000	0.00000000000000	0.11311300000000	-3.10138600000000	11.13107500000000	3.78112800000000	0.00000000000000	0.00000000000000	0.00000000000000	0.00000000000000	15.66895600000000	0.00000000000000	0.00000000000000	1.21780300000000	0.00000000000000	
15.37828000000000	-42.59736000000000	811.14684799999998	50.46297900000000	0.06871100000000	0.00000000000000	0.11303600000000	-4.13057200000000	15.73032500000000	5.15009300000000	0.00000000000000	0.00000000000000	0.00000000000000	0.00000000000000	15.61836200000000	0.00000000000000	0.00000000000000	1.66302900000000	0.00000000000000	
15.37994600000000	-42.94851800000000	808.15868499999999	50.17320300000000	0.06803600000000	0.00000000000000	0.11295600000000	-5.21299100000000	20.86292700000000	6.62611500000000	0.00000000000000	0.00000000000000	0.00000000000000	0.00000000000000	15.57158600000000	0.00000000000000	0.00000000000000	2.14443000000000	0.00000000000000	
15.38161200000000	-43.31939200000000	805.07873600000005	49.86886700000000	0.06735700000000	0.00000000000000	0.11287300000000	-6.30955500000000	26.42502300000000	8.16557500000000	0.30448000000000	0.00000000000000	-0.05298800000000	0.00000000000000	15.52879500000000	0.00000000000000	0.00000000000000	4.80008900000000	0.00000000000000	
15.38327800000000	-43.71069200000000	801.90785100000005	49.55013700000000	0.06667200000000	0.00000000000000	0.11278700000000	-7.37904200000000	32.29743100000000	9.72116500000000	0.30805400000000	0.00000000000000	-0.05363700000000	0.00000000000000	15.49014000000000	0.00000000000000	0.00000000000000	5.75804400000000	0.00000000000000	
15.38494000000000	-44.12305100000000	798.64676699999995	49.21719000000000	0.06598300000000	0.00000000000000	0.11269700000000	-8.38118700000000	38.35583300000000	11.24554800000000	0.31125800000000	0.00000000000000	-0.05426800000000	0.00000000000000	15.45575500000000	0.00000000000000	0.00000000000000	6.70781500000000	0.00000000000000	
15.38660900000000	-44.55701200000000	795.29610000000002	48.87021500000000	0.06528900000000	0.00000000000000	0.11260400000000	-9.27960900000000	44.48104000000000	12.69490300000000	0.31413700000000	0.00000000000000	-0.05488300000000	0.00000000000000	15.42575700000000	0.00000000000000	0.00000000000000	7.62240500000000	0.00000000000000	
15.38827600000000	-45.01303200000000	791.85634100000004	48.50940700000000	0.06458800000000	0.00000000000000	0.11250800000000	-10.04418600000000	50.56798700000000	14.03189700000000	0.31673300000000	0.00000000000000	-0.05548400000000	0.00000000000000	15.40024700000000	0.00000000000000	0.00000000000000	8.47844700000000	0.00000000000000	
15.38993800000000	-45.49147100000000	788.32784500000002	48.13497300000000	0.06388200000000	0.00000000000000	0.11240800000000	-10.65266700000000	56.53250200000000	15.22778800000000	0.31907900000000	0.00000000000000	-0.05607100000000	0.00000000000000	15.37930400000000	0.00000000000000	0.00000000000000	9.25759100000000	0.00000000000000	
15.39160800000000	-45.99259000000000	784.71083599999997	47.74712200000000	0.06316900000000	0.00000000000000	0.11230600000000	-11.09141600000000	62.31540900000000	16.26353300000000	0.32120600000000	0.00000000000000	-0.05664500000000	0.00000000000000	15.36299200000000	0.00000000000000	0.00000000000000	9.94727700000000	0.00000000000000	
15.39327200000000	-46.51654800000000	781.00539700000002	47.34607200000000	0.06245000000000	0.00000000000000	0.11220000000000	-11.35534000000000	67.88393100000000	17.12994000000000	0.32313900000000	0.00000000000000	-0.05720700000000	0.00000000000000	15.35135000000000	0.00000000000000	0.00000000000000	10.54091600000000	0.00000000000000	
15.39494400000000	-47.06339600000000	777.21146799999997	46.93204600000000	0.06172400000000	0.00000000000000	0.11209100000000	-11.44713800000000	73.23069000000000	17.82697400000000	0.32490000000000	0.00000000000000	-0.05775800000000	0.00000000000000	15.34440100000000	0.00000000000000	0.00000000000000	11.03754300000000	0.00000000000000	
15.39660900000000	-47.63307500000000	773.32885199999998	46.50527000000000	0.06099200000000	0.00000000000000	0.11197800000000	-11.37602800000000	78.37076999999999	18.36243900000000	0.32650900000000	0.00000000000000	-0.05829800000000	0.00000000000000	15.34214400000000	0.00000000000000	0.00000000000000	11.44106800000000	0.00000000000000	
15.39827900000000	-48.22541100000000	769.35720500000002	46.06597500000000	0.06025300000000	0.00000000000000	0.11186300000000	-11.15616200000000	83.33743600000000	18.75023600000000	0.32798400000000	0.00000000000000	-0.05882700000000	0.00000000000000	15.34455900000000	0.00000000000000	0.00000000000000	11.75925100000000	0.00000000000000	
15.39993900000000	-48.84011400000000	765.29604400000005	45.61439200000000	0.05950700000000	0.00000000000000	0.11174500000000	-10.80490700000000	88.17708399999999	19.00841600000000	0.32933700000000	0.00000000000000	-0.05934600000000	0.00000000000000	15.35160000000000	0.00000000000000	0.00000000000000	12.00252900000000	0.00000000000000	
15.40160400000000	-49.47677400000000	761.14474700000005	45.15075800000000	0.05875500000000	0.00000000000000	0.11162300000000	-10.34116000000000	92.94397499999999	19.15723700000000	0.33058400000000	0.00000000000000	-0.05985500000000	0.00000000000000	15.36320300000000	0.00000000000000	0.00000000000000	12.18283300000000	0.00000000000000	
15.40327200000000	-50.13486000000000	756.90255300000001	44.67531000000000	0.05799600000000	0.00000000000000	0.11149900000000	-9.78382200000000	97.69522700000000	19.21736400000000	0.33173400000000	0.00000000000000	-0.06035500000000	0.00000000000000	15.37927900000000	0.00000000000000	0.00000000000000	12.31248400000000	0.00000000000000	
15.40494100000000	-50.81371800000000	752.56857100000002	44.18828500000000	0.05723000000000	0.00000000000000	0.11137100000000	-9.15053700000000	102.48640899999999	19.20834900000000	0.33279900000000	0.00000000000000	-0.06084500000000	0.00000000000000	15.39971500000000	0.00000000000000	0.00000000000000	12.40324900000000	0.00000000000000	
15.40660900000000	-51.51256800000000	748.14177700000005	43.68992400000000	0.05645800000000	0.00000000000000	0.11124100000000	-8.45674100000000	107.36798200000000	19.14744900000000	0.33378700000000	0.00000000000000	-0.06132600000000	0.00000000000000	15.42437600000000	0.00000000000000	0.00000000000000	12.46559400000000	0.00000000000000	
15.40827100000000	-52.23050500000000	743.62102900000002	43.18046800000000	0.05568100000000	0.00000000000000	0.11110800000000	-7.71503700000000	112.38271600000000	19.04882500000000	0.33470500000000	0.00000000000000	-0.06179700000000	0.00000000000000	15.45310500000000	0.00000000000000	0.00000000000000	12.50817700000000	0.00000000000000	
15.40994700000000	-52.96649900000000	739.00506299999995	42.66015800000000	0.05489700000000	0.00000000000000	0.11097200000000	-6.93490100000000	117.56410600000000	18.92310200000000	0.33556100000000	0.00000000000000	-0.06226000000000	0.00000000000000	15.48572000000000	0.00000000000000	0.00000000000000	12.53755600000000	0.00000000000000	
15.41160500000000	-53.71939300000000	734.29250800000000	42.12923800000000	0.05410800000000	0.00000000000000	0.11083300000000	-6.12266800000000	122.93572500000001	18.77728100000000	0.33636100000000	0.00000000000000	-0.06271400000000	0.00000000000000	15.52201700000000	0.00000000000000	0.00000000000000	12.55810600000000	0.00000000000000	
15.41327900000000	-54.48790600000000	729.48189100000002	41.58795100000000	0.05331300000000	0.00000000000000	0.11069100000000	-5.28175400000000	128.51139200000000	18.61492200000000	0.33710900000000	0.00000000000000	-0.06315900000000	0.00000000000000	15.56176600000000	0.00000000000000	0.00000000000000	12.57212300000000	0.00000000000000	
15.41494000000000	-55.27063200000000	724.57164599999999	41.03654400000000	0.05251400000000	0.00000000000000	0.11054700000000	-4.41305700000000	134.29600199999999	18.43655300000000	0.33781100000000	0.00000000000000	-0.06359500000000	0.00000000000000	15.60471900000000	0.00000000000000	0.00000000000000	12.58005100000000	0.00000000000000	
15.41660900000000	-56.06604500000000	719.56012499999997	40.47526300000000	0.05171000000000	0.00000000000000	0.11040000000000	-3.51546900000000	140.28681800000001	18.24022800000000	0.33847000000000	0.00000000000000	-0.06402300000000	0.00000000000000	15.65060100000000	0.00000000000000	0.00000000000000	12.58080600000000	0.00000000000000	
15.41827300000000	-56.87249800000000	714.44560700000000	39.90435900000000	0.05090200000000	0.00000000000000	0.11025100000000	-2.58644900000000	146.47505600000000	18.02215800000000	0.33909000000000	0.00000000000000	-0.06444200000000	0.00000000000000	15.69911900000000	0.00000000000000	0.00000000000000	12.57216100000000	0.00000000000000	
15.41994100000000	-57.68822500000000	709.22631500000000	39.32408200000000	0.05009100000000	0.00000000000000	0.11009900000000	-1.62259000000000	152.84758600000001	17.77736400000000	0.33967400000000	0.00000000000000	-0.06485300000000	0.00000000000000	15.74995600000000	0.00000000000000	0.00000000000000	12.55113500000000	0.00000000000000	
15.42160600000000	-58.51135000000000	703.90042400000004	38.73468800000000	0.04927600000000	0.00000000000000	0.10994500000000	-0.62015300000000	159.38859900000000	17.50030100000000	0.34022400000000	0.00000000000000	-0.06525500000000	0.00000000000000	15.80277400000000	0.00000000000000	0.00000000000000	12.51436500000000	0.00000000000000	
15.42327200000000	-59.33988600000000	698.46607900000004	38.13643400000000	0.04845900000000	0.00000000000000	0.10978800000000	0.42447300000000	166.08112000000000	17.18539900000000	0.34074300000000	0.00000000000000	-0.06564900000000	0.00000000000000	15.85721600000000	0.00000000000000	0.00000000000000	12.45844300000000	0.00000000000000	
15.42494000000000	-60.17174100000000	692.92140700000004	37.52958300000000	0.04764000000000	0.00000000000000	0.10963000000000	1.51440500000000	172.90830299999999	16.82751500000000	0.34123200000000	0.00000000000000	-0.06603500000000	0.00000000000000	15.91290700000000	0.00000000000000	0.00000000000000	12.38018700000000	0.00000000000000	
15.42660500000000	-61.00472300000000	687.26454000000001	36.91440100000000	0.04681900000000	0.00000000000000	0.10946900000000	2.65199900000000	179.85442800000001	16.42226300000000	0.34169300000000	0.00000000000000	-0.06641300000000	0.00000000000000	15.96945200000000	0.00000000000000	0.00000000000000	12.27684900000000	0.00000000000000	
15.42828000000000	-61.83654800000000	681.49362699999995	36.29116100000000	0.04599700000000	0.00000000000000	0.10930600000000	3.83868600000000	186.90560500000001	15.96624000000000	0.34212700000000	0.00000000000000	-0.06678200000000	0.00000000000000	16.02643900000000	0.00000000000000	0.00000000000000	12.14625300000000	0.00000000000000	
15.42994100000000	-62.66484200000000	675.60685100000001	35.66013900000000	0.04517400000000	0.00000000000000	0.10914000000000	5.07489900000000	194.05018699999999	15.45713200000000	0.34253600000000	0.00000000000000	-0.06714400000000	0.00000000000000	16.08344200000000	0.00000000000000	0.00000000000000	11.98686400000000	0.00000000000000	
